<?xml version="1.0" standalone="no"?>
<svg xmlns:xlink="http://www.w3.org/1999/xlink" id="wave" style="transform:rotate(0deg); transition: 0.3s" viewBox="0 0 1440 100" version="1.1" xmlns="http://www.w3.org/2000/svg"><defs><linearGradient id="sw-gradient-0" x1="0" x2="0" y1="1" y2="0"><stop stop-color="rgba(241, 241, 241, 1)" offset="0%"/><stop stop-color="rgba(241, 241, 241, 1)" offset="100%"/></linearGradient></defs><path style="transform:translate(0, 0px); opacity:1" fill="url(#sw-gradient-0)" d="M0,50L10.4,50C20.9,50,42,50,63,51.7C83.5,53,104,57,125,50C146.1,43,167,27,188,30C208.7,33,230,57,250,55C271.3,53,292,27,313,20C333.9,13,355,27,376,33.3C396.5,40,417,40,438,45C459.1,50,480,60,501,53.3C521.7,47,543,23,563,20C584.3,17,605,33,626,43.3C647,53,668,57,689,61.7C709.6,67,730,73,751,66.7C772.2,60,793,40,814,28.3C834.8,17,856,13,877,25C897.4,37,918,63,939,73.3C960,83,981,77,1002,73.3C1022.6,70,1043,70,1064,63.3C1085.2,57,1106,43,1127,41.7C1147.8,40,1169,50,1190,53.3C1210.4,57,1231,53,1252,45C1273,37,1294,23,1315,16.7C1335.7,10,1357,10,1377,18.3C1398.3,27,1419,43,1440,53.3C1460.9,63,1482,67,1492,68.3L1502.6,70L1502.6,100L1492.2,100C1481.7,100,1461,100,1440,100C1419.1,100,1398,100,1377,100C1356.5,100,1336,100,1315,100C1293.9,100,1273,100,1252,100C1231.3,100,1210,100,1190,100C1168.7,100,1148,100,1127,100C1106.1,100,1085,100,1064,100C1043.5,100,1023,100,1002,100C980.9,100,960,100,939,100C918.3,100,897,100,877,100C855.7,100,835,100,814,100C793,100,772,100,751,100C730.4,100,710,100,689,100C667.8,100,647,100,626,100C605.2,100,584,100,563,100C542.6,100,522,100,501,100C480,100,459,100,438,100C417.4,100,397,100,376,100C354.8,100,334,100,313,100C292.2,100,271,100,250,100C229.6,100,209,100,188,100C167,100,146,100,125,100C104.3,100,83,100,63,100C41.7,100,21,100,10,100L0,100Z"/></svg>